<svg 
 xmlns="http://www.w3.org/2000/svg"
 xmlns:xlink="http://www.w3.org/1999/xlink"
 width="79px" height="87px">
<path fill-rule="evenodd"  fill="rgb(248, 115, 160)"
 d="M69.358,60.005 C69.358,58.871 69.358,57.840 69.358,56.651 C67.882,57.127 66.533,57.564 65.062,58.038 C64.788,57.206 64.544,56.463 64.272,55.637 C66.796,54.802 69.266,53.984 71.862,53.125 C71.862,54.537 71.862,55.847 71.862,57.261 C74.092,57.111 76.213,56.970 78.457,56.820 C78.511,57.666 78.562,58.464 78.618,59.344 C75.501,59.567 72.478,59.783 69.358,60.005 ZM76.300,41.086 C71.062,45.241 65.883,49.347 60.704,53.455 C60.655,53.423 60.606,53.392 60.558,53.360 C61.589,49.824 62.620,46.288 63.666,42.702 C62.363,41.873 61.084,41.058 59.761,40.215 C59.864,39.994 59.942,39.792 60.047,39.605 C61.845,36.406 63.637,33.202 65.464,30.020 C65.627,29.737 66.021,29.405 66.307,29.405 C69.522,29.399 72.737,29.454 75.951,29.496 C76.083,29.497 76.214,29.533 76.484,29.573 C74.779,32.370 73.127,35.079 71.456,37.820 C73.064,38.904 74.628,39.958 76.300,41.086 ZM72.041,31.962 C71.216,31.962 70.553,32.061 69.932,31.944 C67.928,31.566 66.748,32.326 65.944,34.220 C65.193,35.993 64.086,37.614 63.120,39.329 C64.140,39.979 65.075,40.607 66.044,41.178 C66.515,41.455 66.632,41.726 66.457,42.266 C66.006,43.653 65.630,45.066 65.167,46.667 C67.529,44.793 69.729,43.048 71.983,41.260 C70.610,40.329 69.318,39.451 68.018,38.569 C69.370,36.349 70.667,34.219 72.041,31.962 ZM63.460,70.410 C62.528,67.330 61.640,64.238 60.738,61.149 C60.685,60.966 60.647,60.777 60.536,60.320 C65.886,64.561 71.039,68.645 76.303,72.819 C74.660,73.924 73.088,74.982 71.454,76.082 C73.129,78.829 74.783,81.541 76.503,84.359 C76.203,84.388 76.023,84.417 75.843,84.421 C72.742,84.466 69.640,84.519 66.539,84.534 C66.229,84.536 65.763,84.394 65.632,84.165 C63.648,80.721 61.708,77.252 59.716,73.715 C60.861,72.990 61.885,72.287 62.964,71.681 C63.542,71.356 63.647,71.029 63.460,70.410 ZM67.081,81.579 C67.193,81.775 67.508,81.959 67.734,81.964 C69.109,81.1000 70.486,81.982 72.071,81.982 C70.628,79.616 69.328,77.487 68.011,75.328 C69.376,74.407 70.654,73.546 71.990,72.645 C69.728,70.854 67.539,69.120 65.165,67.240 C65.639,68.873 66.012,70.261 66.452,71.627 C66.622,72.154 66.540,72.440 66.054,72.724 C65.065,73.302 64.114,73.947 63.121,74.581 C64.465,76.968 65.758,79.283 67.081,81.579 ZM54.631,61.945 C53.888,62.323 53.674,62.806 53.489,63.510 C51.476,71.172 46.712,76.172 39.093,78.383 C38.856,78.451 38.610,78.488 38.335,78.546 C38.271,78.370 38.212,78.244 38.181,78.111 C38.036,77.481 37.899,76.849 37.740,76.133 C43.026,74.781 47.054,71.825 49.582,66.916 C46.099,64.544 45.015,61.093 45.247,57.157 C45.481,53.184 47.240,50.081 50.966,48.292 C50.190,45.231 48.831,42.486 47.153,39.891 C43.948,34.937 39.771,30.842 35.603,26.732 C31.842,23.024 28.060,19.329 24.465,15.463 C21.681,12.469 19.461,9.047 18.394,5.007 C18.192,4.244 18.061,3.461 17.887,2.636 C12.820,2.636 7.723,2.636 2.516,2.636 C2.516,4.281 2.516,5.931 2.516,7.630 C1.631,7.630 0.856,7.630 0.000,7.630 C0.000,5.101 0.000,2.571 0.000,0.042 C6.773,0.042 13.547,0.042 20.320,0.042 C20.243,5.567 22.871,9.959 26.411,13.812 C30.039,17.761 33.915,21.485 37.734,25.254 C41.618,29.089 45.474,32.943 48.585,37.464 C51.440,41.616 53.525,46.092 54.070,51.167 C54.200,52.371 54.474,53.231 55.542,54.083 C58.029,56.066 57.454,60.511 54.631,61.945 ZM52.514,55.290 C51.888,55.150 51.703,54.911 51.707,54.286 C51.715,53.196 51.616,52.105 51.555,50.865 C48.967,52.371 47.916,54.585 47.779,57.257 C47.637,60.016 48.188,62.566 50.638,64.577 C50.933,63.196 51.262,62.000 51.421,60.783 C51.514,60.072 51.777,59.922 52.428,59.936 C53.462,59.959 54.041,59.490 54.381,58.521 C54.921,56.980 54.199,55.665 52.514,55.290 ZM25.903,21.313 C25.903,22.109 25.903,22.902 25.903,23.741 C25.079,23.741 24.309,23.741 23.479,23.741 C23.479,22.932 23.479,22.159 23.479,21.313 C24.267,21.313 25.057,21.313 25.903,21.313 ZM30.990,25.099 C30.990,25.905 30.990,26.680 30.990,27.516 C30.185,27.516 29.393,27.516 28.549,27.516 C28.549,26.714 28.549,25.940 28.549,25.099 C29.362,25.099 30.151,25.099 30.990,25.099 ZM2.454,84.410 C8.996,84.410 15.368,84.410 21.786,84.410 C22.491,81.790 22.724,79.126 22.758,76.442 C22.760,76.198 22.437,75.882 22.188,75.712 C19.210,73.667 16.963,71.003 15.320,67.641 C16.064,67.281 16.784,66.932 17.547,66.562 C21.314,73.652 27.249,76.857 35.278,76.553 C35.358,77.316 35.442,78.109 35.535,78.998 C31.991,79.371 28.655,78.784 25.359,77.443 C25.207,78.876 25.121,80.247 24.904,81.596 C24.652,83.155 24.267,84.693 23.976,86.247 C23.867,86.823 23.619,87.006 23.016,87.000 C19.546,86.966 16.074,86.984 12.603,86.984 C8.737,86.984 4.871,86.984 1.005,86.984 C0.698,86.984 0.391,86.984 0.015,86.984 C0.015,61.400 0.015,35.868 0.015,10.283 C0.792,10.283 1.571,10.283 2.454,10.283 C2.454,34.962 2.454,59.649 2.454,84.410 Z"/>
</svg>