<svg 
 xmlns="http://www.w3.org/2000/svg"
 xmlns:xlink="http://www.w3.org/1999/xlink"
 width="70px" height="88px">
<path fill-rule="evenodd"  fill="rgb(248, 115, 160)"
 d="M67.272,43.875 C62.620,50.645 52.832,52.974 45.223,47.328 C44.700,48.059 44.209,48.818 43.649,49.519 C41.143,52.662 37.954,54.797 34.086,55.890 C33.575,56.035 33.288,56.278 33.075,56.776 C31.203,61.149 30.406,65.753 30.064,70.459 C29.702,75.452 30.004,80.417 30.674,85.367 C30.844,86.620 30.121,87.487 28.847,87.489 C19.858,87.500 10.869,87.499 1.879,87.490 C0.703,87.488 0.053,86.804 0.019,85.622 C0.015,85.480 0.018,85.338 0.018,85.195 C0.018,57.571 0.022,29.947 0.001,2.321 C-0.000,1.272 0.285,0.500 1.213,-0.001 C10.658,-0.001 20.104,-0.001 29.549,-0.001 C30.397,0.461 30.673,1.269 30.917,2.136 C33.313,10.651 36.465,18.860 40.802,26.589 C40.927,26.812 41.054,27.033 41.188,27.252 C41.213,27.291 41.277,27.307 41.382,27.369 C44.091,23.055 47.932,20.414 53.034,19.852 C57.172,19.397 60.926,20.497 64.204,23.095 C70.539,28.115 71.861,37.198 67.272,43.875 ZM42.355,44.265 C39.693,40.634 38.800,36.584 39.597,32.148 C39.661,31.794 39.606,31.335 39.425,31.034 C34.368,22.655 30.706,13.676 27.998,4.293 C27.790,3.574 27.471,3.399 26.767,3.401 C19.314,3.426 11.862,3.417 4.410,3.417 C4.107,3.417 3.804,3.417 3.467,3.417 C3.467,30.327 3.467,57.141 3.467,84.030 C11.346,84.030 19.154,84.030 27.043,84.030 C26.101,74.740 26.198,65.582 29.395,56.667 C28.336,56.577 27.350,56.529 26.373,56.406 C17.365,55.265 10.158,47.004 10.265,37.945 C10.269,37.613 10.326,37.256 10.463,36.958 C10.781,36.266 11.580,35.916 12.324,36.077 C13.102,36.245 13.648,36.911 13.660,37.833 C13.688,40.057 14.101,42.202 15.077,44.196 C17.687,49.524 21.937,52.683 27.867,53.104 C34.117,53.550 38.923,50.876 42.235,45.546 C42.478,45.155 42.761,44.820 42.355,44.265 ZM54.710,23.184 C48.068,23.171 42.688,28.548 42.717,35.169 C42.745,41.784 48.088,47.103 54.693,47.090 C61.264,47.077 66.603,41.690 66.590,35.087 C66.578,28.496 61.288,23.196 54.710,23.184 ZM57.651,38.609 C56.721,39.972 55.785,41.330 54.842,42.683 C54.080,43.777 53.134,44.034 52.245,43.410 C51.405,42.819 51.314,41.822 52.020,40.777 C52.768,39.672 53.527,38.575 54.318,37.420 C53.423,36.317 52.578,35.282 51.741,34.239 C51.008,33.325 50.978,32.663 51.643,31.687 C52.603,30.276 53.570,28.870 54.547,27.471 C55.232,26.489 56.175,26.253 57.034,26.822 C57.870,27.375 58.020,28.408 57.373,29.375 C56.600,30.530 55.803,31.669 55.002,32.835 C55.878,33.914 56.721,34.948 57.556,35.987 C58.327,36.948 58.353,37.582 57.651,38.609 Z"/>
</svg>