<svg 
 xmlns="http://www.w3.org/2000/svg"
 xmlns:xlink="http://www.w3.org/1999/xlink"
 width="74px" height="88px">
<path fill-rule="evenodd"  fill="rgb(248, 115, 160)"
 d="M73.982,84.880 C73.982,86.674 73.461,87.186 71.638,87.187 C59.339,87.187 47.039,87.187 34.740,87.186 C32.937,87.186 32.437,86.679 32.437,84.846 C32.435,80.561 32.436,76.276 32.436,71.991 C32.436,71.686 32.436,71.381 32.436,70.976 C31.725,71.016 31.111,71.042 30.499,71.086 C20.960,71.785 11.888,66.681 7.597,58.152 C7.002,56.969 6.620,55.679 6.085,54.463 C5.965,54.192 5.643,53.888 5.364,53.827 C2.195,53.130 0.087,50.499 0.165,47.278 C0.241,44.189 2.533,41.700 5.754,41.164 C6.003,41.123 6.346,40.898 6.424,40.679 C8.341,35.300 11.491,30.622 14.753,26.015 C20.633,17.709 26.541,9.421 32.455,1.138 C32.772,0.696 33.261,0.376 33.669,-0.001 C46.707,-0.001 59.746,-0.001 72.784,-0.001 C73.727,0.484 73.1000,1.258 73.999,2.305 C73.978,29.829 73.982,57.354 73.982,84.880 ZM70.512,3.438 C70.359,3.423 70.275,3.408 70.191,3.408 C58.656,3.406 47.121,3.401 35.586,3.426 C35.267,3.428 34.837,3.673 34.647,3.939 C28.422,12.662 22.190,21.382 16.030,30.151 C13.175,34.216 10.586,38.444 9.175,43.279 C8.942,44.076 8.354,44.474 7.526,44.509 C7.073,44.528 6.616,44.509 6.169,44.566 C4.574,44.767 3.483,46.098 3.566,47.707 C3.653,49.376 4.956,50.487 6.883,50.532 C8.194,50.562 8.744,50.922 8.984,52.052 C10.872,60.935 19.060,68.002 29.726,67.715 C35.497,67.559 40.903,65.983 45.890,63.096 C47.620,62.095 49.188,60.809 50.805,59.620 C51.718,58.949 52.647,58.947 53.308,59.702 C53.961,60.449 53.860,61.411 53.044,62.193 C52.921,62.310 52.791,62.420 52.662,62.531 C48.082,66.451 42.744,68.818 36.923,70.157 C36.089,70.348 35.789,70.621 35.811,71.525 C35.881,74.503 35.837,77.484 35.837,80.464 C35.837,81.536 35.837,82.609 35.837,83.721 C47.496,83.721 59.015,83.721 70.512,83.721 C70.512,56.919 70.512,30.177 70.512,3.438 ZM51.562,46.942 C51.887,48.382 52.136,49.945 51.922,51.378 C51.557,53.829 50.018,55.574 47.683,56.508 C46.845,56.844 45.975,57.111 45.103,57.348 C43.419,57.806 41.994,58.671 40.754,59.889 C40.067,60.562 39.362,61.232 38.588,61.798 C36.038,63.663 32.713,63.600 30.217,61.663 C29.570,61.160 28.958,60.602 28.384,60.017 C27.018,58.622 25.391,57.709 23.510,57.221 C22.909,57.065 22.308,56.892 21.725,56.677 C18.111,55.352 16.291,52.061 17.075,48.285 C17.184,47.758 17.304,47.233 17.451,46.715 C17.993,44.811 17.932,42.926 17.467,41.004 C17.163,39.748 16.845,38.421 16.942,37.159 C17.163,34.291 18.734,32.271 21.422,31.179 C21.919,30.978 22.428,30.786 22.950,30.671 C25.296,30.157 27.235,28.981 28.881,27.237 C30.665,25.348 32.808,24.301 35.495,24.669 C36.861,24.856 38.039,25.424 39.078,26.298 C39.641,26.772 40.188,27.269 40.704,27.795 C42.007,29.125 43.565,29.987 45.354,30.479 C46.225,30.719 47.099,30.982 47.926,31.338 C50.519,32.455 52.166,35.051 52.181,37.820 C51.986,38.820 51.851,39.834 51.581,40.812 C51.015,42.863 51.094,44.869 51.562,46.942 ZM45.604,34.114 C42.433,33.322 39.757,31.800 37.469,29.455 C35.480,27.414 33.539,27.408 31.549,29.435 C29.257,31.771 26.598,33.313 23.422,34.108 C20.800,34.764 19.789,36.530 20.521,39.137 C21.413,42.315 21.467,45.440 20.514,48.603 C20.331,49.210 20.253,49.906 20.345,50.528 C20.598,52.237 21.717,53.235 23.340,53.617 C26.518,54.363 29.259,55.838 31.474,58.263 C31.720,58.533 32.013,58.767 32.307,58.988 C33.635,59.985 35.325,60.014 36.646,59.007 C37.319,58.492 37.932,57.893 38.541,57.301 C40.095,55.787 41.900,54.722 43.988,54.125 C44.830,53.885 45.676,53.637 46.487,53.311 C47.934,52.730 48.780,51.363 48.671,49.812 C48.630,49.223 48.525,48.626 48.359,48.059 C47.536,45.259 47.535,42.472 48.362,39.671 C48.545,39.051 48.621,38.398 48.688,38.058 C48.715,35.994 47.679,34.632 45.604,34.114 ZM41.508,47.688 C40.591,47.660 39.868,46.905 39.878,45.985 C39.888,45.041 40.695,44.261 41.624,44.296 C42.544,44.331 43.249,45.081 43.241,46.014 C43.232,46.986 42.477,47.716 41.508,47.688 ZM31.244,46.188 C28.123,46.173 25.651,43.677 25.653,40.545 C25.655,37.401 28.210,34.877 31.355,34.910 C34.445,34.942 36.929,37.493 36.909,40.613 C36.888,43.722 34.366,46.203 31.244,46.188 ZM31.334,38.319 C30.112,38.288 29.093,39.255 29.060,40.479 C29.024,41.767 29.988,42.771 31.266,42.777 C32.506,42.782 33.490,41.821 33.505,40.589 C33.520,39.362 32.553,38.351 31.334,38.319 ZM34.506,50.585 C35.408,50.589 36.179,51.346 36.199,52.249 C36.220,53.148 35.479,53.938 34.577,53.979 C33.624,54.022 32.831,53.277 32.814,52.322 C32.796,51.370 33.564,50.582 34.506,50.585 Z"/>
</svg>