<svg 
 xmlns="http://www.w3.org/2000/svg"
 xmlns:xlink="http://www.w3.org/1999/xlink"
 width="60px" height="89px">
<path fill-rule="evenodd"  fill="rgb(248, 115, 160)"
 d="M59.766,59.135 C59.607,60.994 58.705,62.371 57.020,63.235 C56.714,63.392 56.427,63.802 56.343,64.148 C54.735,70.794 50.973,75.656 44.714,78.473 C44.586,78.530 44.452,78.572 44.208,78.664 C43.905,77.911 43.607,77.167 43.275,76.343 C47.297,74.618 50.336,71.887 52.297,67.971 C48.851,65.622 47.760,62.190 47.971,58.276 C48.185,54.297 49.915,51.166 53.681,49.318 C52.876,46.166 51.458,43.316 49.650,40.551 C48.001,42.282 46.481,43.974 46.485,46.547 C45.615,46.442 44.843,46.348 44.038,46.250 C43.947,44.933 44.210,43.733 44.863,42.699 C45.660,41.438 46.597,40.264 47.517,39.088 C48.164,38.260 48.698,37.403 48.528,36.305 C48.238,34.435 46.494,33.446 44.545,34.051 C44.012,34.216 43.511,34.493 43.005,34.739 C41.330,35.556 39.593,36.127 37.710,35.824 C36.962,35.704 36.248,35.364 35.388,35.080 C35.998,34.264 36.467,33.636 36.955,32.982 C39.025,33.862 40.796,33.020 42.642,32.046 C42.417,31.800 42.245,31.592 42.054,31.403 C37.948,27.353 33.793,23.350 29.753,19.234 C28.037,17.484 26.471,15.564 24.995,13.601 C22.762,10.627 21.137,7.343 20.687,3.534 C14.720,3.534 8.783,3.534 2.741,3.534 C2.741,5.189 2.741,6.843 2.741,8.545 C1.862,8.545 1.086,8.545 0.210,8.545 C0.210,6.011 0.210,3.473 0.210,0.935 C7.824,0.935 15.438,0.935 23.052,0.935 C23.139,3.627 23.627,6.215 24.891,8.630 C26.605,11.901 28.886,14.743 31.457,17.343 C34.995,20.921 38.622,24.411 42.209,27.941 C42.713,28.437 43.235,28.919 43.700,29.449 C44.637,30.517 45.622,31.283 47.147,31.582 C49.820,32.106 51.337,34.661 51.047,37.426 C51.008,37.793 51.191,38.247 51.407,38.568 C53.761,42.076 55.609,45.809 56.449,49.987 C56.678,51.122 56.800,52.282 56.904,53.437 C56.950,53.936 57.097,54.238 57.542,54.510 C59.262,55.557 59.934,57.169 59.766,59.135 ZM55.280,56.342 C54.607,56.193 54.445,55.910 54.449,55.262 C54.454,54.197 54.344,53.130 54.271,51.871 C51.426,53.629 50.453,56.117 50.487,59.058 C50.516,61.549 51.115,63.850 53.369,65.616 C53.720,63.992 54.035,62.536 54.359,61.037 C54.604,61.026 54.853,61.012 55.102,61.003 C56.203,60.966 56.842,60.485 57.153,59.455 C57.602,57.965 56.885,56.699 55.280,56.342 ZM50.915,29.316 C49.992,28.659 48.781,28.410 47.569,27.931 C47.569,27.351 47.569,26.551 47.569,25.756 C50.864,25.416 54.396,27.921 55.474,31.382 C54.716,31.636 53.956,31.890 53.401,32.076 C52.518,31.063 51.858,29.988 50.915,29.316 ZM28.672,22.255 C28.672,23.047 28.672,23.825 28.672,24.673 C27.862,24.673 27.075,24.673 26.233,24.673 C26.233,23.877 26.233,23.099 26.233,22.255 C27.039,22.255 27.831,22.255 28.672,22.255 ZM33.737,26.033 C33.737,26.858 33.737,27.660 33.737,28.503 C32.924,28.503 32.148,28.503 31.315,28.503 C31.315,27.678 31.315,26.878 31.315,26.033 C32.133,26.033 32.905,26.033 33.737,26.033 ZM2.673,85.491 C9.998,85.491 17.229,85.491 24.649,85.491 C24.895,83.818 25.116,82.090 25.410,80.373 C25.757,78.348 25.424,76.851 23.461,75.578 C21.003,73.981 19.390,71.471 18.081,68.703 C18.836,68.340 19.557,67.992 20.278,67.645 C24.859,75.908 31.830,78.795 40.937,77.187 C41.130,77.918 41.330,78.675 41.558,79.540 C36.947,80.723 32.508,80.333 28.241,78.604 C27.729,81.786 27.225,84.924 26.720,88.063 C17.754,88.063 9.025,88.063 0.238,88.063 C0.238,62.447 0.238,36.851 0.238,11.174 C1.066,11.174 1.823,11.174 2.673,11.174 C2.673,35.938 2.673,60.685 2.673,85.491 Z"/>
</svg>