<svg 
 xmlns="http://www.w3.org/2000/svg"
 xmlns:xlink="http://www.w3.org/1999/xlink"
 width="64px" height="64px">
<path fill-rule="evenodd"  fill="rgb(248, 115, 160)"
 d="M60.573,43.496 C60.437,43.572 60.333,43.709 60.221,43.824 C59.470,44.598 58.410,44.718 57.578,44.120 C56.752,43.528 56.451,42.358 57.034,41.471 C57.375,40.952 57.935,40.572 58.415,40.150 C58.646,39.947 58.919,39.789 59.297,39.525 C58.865,39.328 58.587,39.183 58.296,39.072 C57.226,38.670 56.523,37.926 55.906,36.953 C55.045,35.596 54.084,34.267 52.982,33.101 C50.035,29.986 46.577,27.453 43.201,24.833 C38.593,21.258 33.936,17.742 29.696,13.720 C26.616,10.797 23.771,7.672 21.502,4.062 C20.706,2.797 21.231,1.330 22.598,0.951 C23.368,0.738 24.248,0.997 24.693,1.694 C28.843,8.196 34.659,13.043 40.600,17.768 C44.799,21.108 49.037,24.401 53.189,27.799 C55.433,29.636 57.479,31.709 58.961,34.240 C59.392,34.977 59.881,35.480 60.692,35.779 C62.079,36.290 62.796,37.410 63.125,38.808 C63.125,39.294 63.125,39.780 63.125,40.267 C62.748,41.718 61.871,42.771 60.573,43.496 ZM27.148,34.139 C27.153,32.649 28.304,31.510 29.811,31.501 C31.364,31.494 32.518,32.619 32.521,34.144 C32.524,35.639 31.319,36.854 29.836,36.853 C28.364,36.851 27.143,35.618 27.148,34.139 ZM37.091,32.653 C35.600,32.661 34.392,31.459 34.391,29.968 C34.389,28.476 35.526,27.331 37.036,27.302 C38.547,27.273 39.763,28.445 39.776,29.943 C39.790,31.425 38.580,32.645 37.091,32.653 ZM27.530,39.160 C27.821,39.522 28.016,39.563 28.416,39.366 C30.301,38.434 32.207,37.543 34.093,36.612 C34.363,36.478 34.618,36.243 34.789,35.992 C35.577,34.845 36.985,34.417 38.212,34.991 C39.444,35.568 40.053,36.946 39.648,38.247 C39.249,39.528 37.958,40.302 36.600,40.090 C36.412,40.061 36.186,40.055 36.022,40.133 C33.938,41.116 31.862,42.116 29.717,43.144 C30.308,44.919 30.586,46.683 30.557,48.503 C30.446,55.556 24.970,61.783 17.990,62.772 C10.063,63.895 2.927,58.947 1.207,51.138 C-0.546,43.176 4.860,34.995 12.904,33.576 C18.856,32.525 23.744,34.462 27.530,39.160 ZM15.712,37.251 C9.752,37.263 4.898,42.121 4.887,48.088 C4.875,54.086 9.730,58.970 15.715,58.979 C21.699,58.988 26.574,54.109 26.571,48.115 C26.568,42.119 21.691,37.240 15.712,37.251 ZM15.689,57.057 C14.200,57.040 13.024,55.824 13.043,54.320 C13.062,52.840 14.234,51.701 15.736,51.705 C17.258,51.708 18.424,52.882 18.412,54.397 C18.401,55.888 17.188,57.072 15.689,57.057 ZM15.707,50.594 C14.561,50.582 13.759,49.701 13.750,48.428 C13.742,47.295 13.748,46.161 13.748,45.029 C13.748,43.895 13.740,42.763 13.750,41.629 C13.762,40.384 14.550,39.535 15.689,39.519 C16.866,39.502 17.699,40.339 17.709,41.611 C17.726,43.897 17.725,46.183 17.710,48.470 C17.701,49.728 16.851,50.607 15.707,50.594 ZM39.776,52.330 C39.798,53.813 38.603,55.040 37.110,55.066 C35.629,55.092 34.405,53.888 34.391,52.390 C34.376,50.884 35.498,49.747 37.019,49.725 C38.580,49.703 39.754,50.811 39.776,52.330 ZM37.140,42.209 C38.595,42.232 39.788,43.455 39.777,44.915 C39.767,46.408 38.553,47.594 37.047,47.582 C35.544,47.569 34.365,46.357 34.391,44.852 C34.417,43.351 35.629,42.186 37.140,42.209 ZM46.997,48.191 C46.994,49.693 45.804,50.877 44.300,50.871 C42.809,50.865 41.605,49.650 41.618,48.163 C41.631,46.693 42.809,45.532 44.298,45.521 C45.821,45.509 47.000,46.675 46.997,48.191 ZM41.618,34.192 C41.598,32.677 42.760,31.508 44.294,31.501 C45.843,31.494 46.998,32.626 46.998,34.152 C46.998,35.645 45.785,36.860 44.303,36.853 C42.856,36.846 41.637,35.638 41.618,34.192 ZM44.307,43.863 C42.842,43.855 41.637,42.664 41.618,41.204 C41.598,39.724 42.810,38.481 44.290,38.464 C45.775,38.446 46.994,39.657 46.999,41.157 C47.005,42.654 45.795,43.871 44.307,43.863 ZM30.247,57.415 C33.013,58.730 35.926,59.376 38.965,59.074 C45.879,58.390 50.909,54.926 53.947,48.634 C54.133,48.250 54.010,48.075 53.723,47.843 C51.793,46.279 50.543,44.303 50.185,41.816 C49.917,39.950 50.188,38.141 50.898,36.405 C51.306,35.407 52.434,34.963 53.428,35.345 C54.436,35.733 54.946,36.812 54.576,37.888 C54.231,38.893 53.958,39.900 54.069,40.974 C54.284,43.057 55.532,44.421 57.225,45.463 C57.671,45.738 58.151,45.959 58.608,46.218 C59.377,46.653 59.741,47.391 59.626,48.252 C59.518,49.060 58.959,49.643 58.133,49.904 C57.902,49.977 57.636,50.173 57.534,50.385 C54.196,57.297 48.720,61.394 41.214,62.828 C40.542,62.956 39.858,63.026 39.180,63.122 C38.208,63.122 37.236,63.122 36.263,63.122 C35.329,62.971 34.368,62.910 33.466,62.649 C31.822,62.171 30.193,61.625 28.595,61.012 C27.481,60.584 27.056,59.364 27.528,58.344 C28.001,57.324 29.158,56.897 30.247,57.415 Z"/>
</svg>