<svg 
 xmlns="http://www.w3.org/2000/svg"
 xmlns:xlink="http://www.w3.org/1999/xlink"
 width="72px" height="69px">
<path fill-rule="evenodd"  fill="rgb(255, 255, 255)"
 d="M70.677,32.603 C69.977,36.750 69.271,40.897 68.506,45.032 C67.761,49.059 66.924,53.071 67.078,57.204 C67.174,59.783 67.745,62.227 69.118,64.447 C69.527,65.108 69.453,65.630 68.948,65.942 C68.450,66.251 67.930,66.068 67.531,65.427 C65.796,62.635 65.209,59.539 65.198,56.310 C65.184,52.491 65.910,48.761 66.586,45.022 C67.412,40.457 68.318,35.896 68.879,31.297 C69.650,24.961 68.960,18.780 65.987,13.003 C64.701,10.504 63.084,8.237 61.137,6.223 C60.064,5.111 59.669,3.841 59.875,2.339 C59.924,1.976 59.930,1.609 59.962,1.244 C60.012,0.683 60.328,0.334 60.878,0.324 C61.440,0.313 61.771,0.669 61.787,1.230 C61.804,1.802 61.783,2.377 61.732,2.945 C61.666,3.682 61.902,4.268 62.409,4.804 C64.925,7.464 66.996,10.427 68.474,13.796 C69.876,16.990 70.659,20.332 70.924,23.804 C70.944,24.072 71.005,24.336 71.047,24.601 C71.047,26.159 71.047,27.715 71.047,29.273 C70.927,30.384 70.862,31.503 70.677,32.603 ZM62.130,14.573 C61.997,15.110 61.511,15.334 60.818,15.245 C59.579,15.086 58.335,14.843 57.093,14.847 C54.186,14.856 52.319,16.260 51.317,19.015 C50.499,21.269 50.408,23.622 50.386,25.699 C50.481,30.433 51.133,34.821 51.797,39.210 C52.563,44.273 53.368,49.332 54.005,54.412 C54.380,57.408 54.476,60.448 53.637,63.409 C53.404,64.231 52.987,65.013 52.573,65.768 C52.283,66.297 51.725,66.389 51.282,66.088 C50.806,65.763 50.697,65.286 50.988,64.828 C52.272,62.809 52.347,60.544 52.342,58.273 C52.335,54.116 51.620,50.032 51.013,45.937 C50.258,40.849 49.421,35.771 48.799,30.667 C48.357,27.031 48.255,23.359 49.145,19.745 C49.292,19.149 49.481,18.556 49.714,17.987 C51.041,14.756 53.474,13.041 56.938,12.962 C58.359,12.929 59.792,13.187 61.211,13.373 C61.907,13.464 62.268,14.013 62.130,14.573 ZM43.387,22.504 C41.596,24.545 39.956,26.724 38.313,28.891 C37.712,29.682 37.248,30.594 36.816,31.498 C36.092,33.011 36.204,34.537 37.280,35.816 C38.348,37.085 39.559,38.240 40.766,39.385 C41.543,40.122 42.395,40.788 43.266,41.413 C44.275,42.137 44.907,43.099 45.341,44.237 C46.285,46.713 46.718,49.307 47.059,51.915 C47.492,55.235 47.685,58.574 47.480,61.919 C47.410,63.052 47.194,64.184 46.947,65.295 C46.782,66.038 46.270,66.291 45.691,66.088 C45.175,65.906 45.057,65.415 45.213,64.701 C45.422,63.745 45.655,62.772 45.680,61.801 C45.814,56.468 45.267,51.203 43.958,46.022 C43.599,44.601 42.911,43.491 41.725,42.544 C39.857,41.054 38.032,39.467 36.418,37.709 C34.082,35.168 33.815,32.686 35.617,29.732 C37.014,27.440 38.698,25.313 40.363,23.200 C42.314,20.724 44.433,18.384 46.039,15.643 C48.179,11.990 49.331,8.028 49.825,3.849 C49.935,2.919 50.008,1.983 50.094,1.048 C50.158,0.345 50.524,-0.041 51.097,-0.002 C51.674,0.038 51.970,0.458 51.928,1.181 C51.917,1.364 51.900,1.546 51.886,1.729 C51.572,9.691 48.614,16.549 43.387,22.504 ZM38.572,21.655 C37.796,21.659 37.020,21.668 36.245,21.652 C35.430,21.636 35.137,21.342 35.127,20.515 C35.112,19.302 35.122,18.088 35.122,16.874 C35.122,16.627 35.122,16.382 35.122,16.101 C32.722,16.101 30.401,16.101 28.021,16.101 C28.021,18.516 28.021,20.922 28.021,23.425 C28.304,23.425 28.570,23.425 28.836,23.425 C31.506,23.426 34.175,23.420 36.845,23.429 C37.747,23.431 38.191,23.823 38.053,24.502 C38.007,24.732 37.854,24.959 37.698,25.145 C37.009,25.970 36.281,26.762 35.609,27.599 C35.231,28.072 34.798,28.268 34.197,28.260 C32.395,28.236 30.592,28.251 28.790,28.251 C28.543,28.251 28.296,28.251 28.006,28.251 C28.006,31.407 28.006,34.488 28.006,37.642 C28.253,37.654 28.493,37.676 28.734,37.678 C30.582,37.680 32.431,37.645 34.277,37.705 C34.697,37.718 35.203,37.961 35.500,38.265 C36.298,39.079 37.036,39.959 37.728,40.868 C37.941,41.147 38.099,41.681 37.972,41.954 C37.844,42.228 37.334,42.468 36.988,42.473 C34.205,42.514 31.421,42.497 28.637,42.497 C28.456,42.497 28.275,42.497 27.961,42.497 C27.961,43.137 27.966,43.743 27.960,44.349 C27.950,45.312 27.654,45.603 26.680,45.611 C25.978,45.616 25.275,45.612 24.531,45.612 C24.531,49.983 24.531,54.300 24.531,58.614 C27.014,59.243 27.332,59.670 27.670,62.917 C28.054,62.917 28.453,62.909 28.852,62.919 C29.604,62.938 29.937,63.255 29.948,64.015 C29.965,65.274 29.961,66.534 29.950,67.792 C29.943,68.662 29.611,68.993 28.744,68.994 C25.230,68.998 21.716,68.996 18.202,68.996 C12.909,68.996 7.615,68.996 2.322,68.996 C1.224,68.996 0.953,68.722 0.952,67.623 C0.950,66.455 0.947,65.286 0.953,64.119 C0.958,63.229 1.259,62.929 2.142,62.918 C2.500,62.912 2.859,62.917 3.046,62.917 C3.328,61.873 3.452,60.883 3.864,60.035 C4.322,59.091 5.300,58.750 6.419,58.667 C6.419,58.369 6.419,58.082 6.419,57.796 C6.419,39.066 6.419,20.336 6.419,1.606 C6.419,0.266 6.628,0.055 7.967,0.055 C12.964,0.054 17.961,0.054 22.958,0.055 C24.225,0.055 24.488,0.318 24.488,1.577 C24.489,3.817 24.489,6.058 24.489,8.390 C24.773,8.390 25.015,8.390 25.257,8.390 C29.683,8.390 34.110,8.390 38.536,8.390 C39.674,8.390 39.930,8.651 39.931,9.816 C39.933,13.297 39.933,16.777 39.931,20.257 C39.930,21.383 39.668,21.650 38.572,21.655 ZM28.018,40.632 C30.366,40.632 32.657,40.632 35.037,40.632 C34.299,39.583 34.299,39.583 33.152,39.583 C31.647,39.583 30.143,39.581 28.638,39.583 C28.422,39.585 28.206,39.605 28.018,39.614 C28.018,40.011 28.018,40.320 28.018,40.632 ZM28.003,26.363 C29.814,26.363 31.546,26.302 33.271,26.388 C34.148,26.432 34.606,26.053 34.988,25.344 C32.634,25.344 30.312,25.344 27.951,25.344 C27.970,25.712 27.986,26.020 28.003,26.363 ZM2.840,64.865 C2.840,65.617 2.840,66.315 2.840,67.057 C11.256,67.057 19.632,67.057 28.037,67.057 C28.037,66.304 28.037,65.587 28.037,64.865 C19.613,64.865 11.235,64.865 2.840,64.865 ZM6.547,60.599 C5.749,60.601 5.269,60.922 5.188,61.558 C5.134,61.979 5.178,62.412 5.178,62.871 C12.051,62.871 18.872,62.871 25.687,62.871 C25.903,61.259 25.664,60.541 23.775,60.579 C20.426,60.647 17.075,60.597 13.725,60.597 C11.332,60.599 8.940,60.595 6.547,60.599 ZM22.552,58.643 C22.552,58.260 22.552,57.926 22.552,57.560 C19.020,57.560 15.525,57.560 11.988,57.560 C11.988,57.934 11.988,58.265 11.988,58.643 C15.552,58.643 19.049,58.643 22.552,58.643 ZM10.009,1.987 C9.426,1.987 8.909,1.987 8.362,1.987 C8.362,20.896 8.362,39.768 8.362,58.644 C8.945,58.644 9.479,58.644 10.009,58.644 C10.009,39.726 10.009,20.857 10.009,1.987 ZM12.013,55.577 C15.547,55.577 19.046,55.577 22.545,55.577 C22.545,54.735 22.545,53.944 22.545,53.087 C22.257,53.087 22.011,53.087 21.764,53.087 C19.186,53.087 16.608,53.087 14.030,53.087 C11.683,53.087 11.683,53.087 12.013,55.577 ZM11.936,50.496 C11.889,51.074 12.100,51.227 12.664,51.222 C15.741,51.197 18.818,51.210 21.896,51.210 C22.113,51.210 22.330,51.210 22.539,51.210 C22.539,50.313 22.539,49.524 22.539,48.711 C19.012,48.711 15.533,48.711 11.946,48.711 C11.946,49.360 11.983,49.931 11.936,50.496 ZM22.530,1.967 C19.009,1.967 15.545,1.967 12.012,1.967 C12.012,16.954 12.012,31.880 12.012,46.803 C15.560,46.803 19.041,46.803 22.537,46.803 C22.537,46.392 22.537,46.020 22.537,45.612 C21.235,45.612 19.982,45.615 18.730,45.611 C17.686,45.608 17.379,45.305 17.379,44.271 C17.378,32.757 17.378,21.243 17.379,9.729 C17.379,8.683 17.672,8.392 18.719,8.390 C19.989,8.388 21.259,8.390 22.530,8.390 C22.530,6.204 22.530,4.094 22.530,1.967 ZM38.011,10.323 C31.761,10.323 25.565,10.323 19.324,10.323 C19.324,21.484 19.324,32.570 19.324,43.655 C21.590,43.655 23.810,43.655 26.089,43.655 C26.089,43.313 26.089,43.019 26.089,42.726 C26.089,33.664 26.088,24.601 26.090,15.539 C26.090,14.423 26.354,14.161 27.453,14.161 C30.737,14.160 34.021,14.160 37.304,14.160 C37.545,14.160 37.786,14.160 38.011,14.160 C38.011,12.819 38.011,11.573 38.011,10.323 ZM38.017,16.092 C37.677,16.092 37.385,16.092 37.037,16.092 C37.037,17.349 37.037,18.529 37.037,19.737 C37.387,19.737 37.692,19.737 38.017,19.737 C38.017,18.499 38.017,17.300 38.017,16.092 ZM62.760,46.108 C63.492,41.527 64.352,36.966 65.157,32.397 C65.189,32.216 65.224,32.037 65.277,31.861 C65.437,31.331 65.780,31.041 66.347,31.150 C66.913,31.258 67.169,31.663 67.084,32.207 C66.918,33.267 66.698,34.319 66.497,35.374 C65.275,41.777 64.168,48.201 63.584,54.696 C63.337,57.442 63.414,60.220 63.385,62.983 C63.380,63.449 63.557,63.923 63.690,64.383 C63.895,65.088 63.706,65.607 63.140,65.783 C62.612,65.946 62.066,65.673 61.931,64.984 C61.683,63.712 61.545,62.416 61.391,61.127 C61.340,60.698 61.383,60.258 61.383,59.647 C61.490,55.216 62.035,50.649 62.760,46.108 Z"/>
</svg>