<svg 
 xmlns="http://www.w3.org/2000/svg"
 xmlns:xlink="http://www.w3.org/1999/xlink"
 width="70px" height="71px">
<path fill-rule="evenodd"  fill="rgb(255, 255, 255)"
 d="M53.381,70.091 C53.203,70.110 53.030,70.172 52.855,70.214 C51.849,70.214 50.844,70.214 49.838,70.214 C48.658,69.970 47.448,69.822 46.303,69.464 C40.882,67.766 37.056,64.277 34.878,59.026 C34.646,58.465 34.381,58.267 33.787,58.308 C32.991,58.363 32.188,58.339 31.389,58.310 C30.383,58.273 29.710,57.618 29.694,56.619 C29.667,54.951 29.670,53.284 29.692,51.616 C29.705,50.580 30.361,49.925 31.417,49.880 C32.189,49.847 32.963,49.874 33.685,49.874 C34.057,48.499 34.408,47.205 34.785,45.813 C33.798,45.813 32.810,45.814 31.822,45.813 C30.278,45.811 29.686,45.212 29.684,43.650 C29.683,42.189 29.677,40.726 29.686,39.265 C29.694,38.034 30.358,37.357 31.593,37.343 C33.101,37.326 34.609,37.333 36.117,37.341 C37.517,37.348 38.156,37.999 38.165,39.407 C38.167,39.721 38.165,40.035 38.165,40.479 C38.400,40.269 38.546,40.146 38.683,40.014 C43.793,35.094 49.825,33.425 56.590,35.514 C63.354,37.602 67.492,42.371 68.839,49.319 C70.777,59.310 63.488,69.004 53.381,70.091 ZM33.512,51.961 C32.935,51.961 32.375,51.961 31.782,51.961 C31.782,53.401 31.782,54.802 31.782,56.223 C32.520,56.223 33.217,56.223 33.902,56.223 C33.770,54.784 33.643,53.387 33.512,51.961 ZM36.109,42.127 C36.101,41.227 36.108,40.327 36.108,39.451 C34.580,39.451 33.177,39.451 31.764,39.451 C31.764,40.894 31.764,42.280 31.764,43.758 C32.723,43.758 33.610,43.766 34.498,43.754 C36.073,43.735 36.128,44.099 36.109,42.127 ZM51.410,36.744 C42.722,36.714 35.661,43.742 35.650,52.432 C35.639,61.076 42.669,68.133 51.317,68.158 C59.986,68.181 67.079,61.122 67.092,52.456 C67.105,43.823 60.070,36.774 51.410,36.744 ZM51.352,66.090 C43.839,66.090 37.725,59.958 37.730,52.433 C37.736,44.870 43.868,38.779 51.444,38.812 C58.930,38.845 65.031,44.978 65.017,52.456 C65.002,59.967 58.863,66.092 51.352,66.090 ZM51.420,40.869 C44.999,40.847 39.807,45.995 39.787,52.405 C39.768,58.778 44.922,63.996 51.273,64.034 C57.690,64.072 62.954,58.855 62.960,52.449 C62.966,46.093 57.780,40.890 51.420,40.869 ZM52.589,51.132 C52.779,51.247 53.014,51.289 53.228,51.365 C55.315,52.111 56.509,53.558 56.571,55.416 C56.642,57.524 55.407,59.451 53.440,60.280 C53.086,60.429 52.712,60.531 52.354,60.654 C52.211,61.847 51.926,62.264 51.260,62.260 C50.615,62.257 50.315,61.842 50.216,60.982 C48.981,60.487 47.823,60.051 46.692,59.551 C46.236,59.350 45.974,58.868 46.203,58.414 C46.371,58.082 46.774,57.789 47.136,57.665 C47.367,57.587 47.716,57.844 48.010,57.957 C48.699,58.222 49.387,58.490 50.241,58.820 C50.241,56.625 50.249,54.689 50.227,52.754 C50.226,52.602 50.057,52.400 49.911,52.315 C49.521,52.082 49.095,51.910 48.693,51.697 C47.245,50.925 46.481,49.730 46.619,48.076 C46.772,46.244 47.762,44.997 49.477,44.332 C49.708,44.243 49.952,44.190 50.178,44.124 C50.337,43.014 50.611,42.644 51.261,42.642 C51.904,42.640 52.193,43.002 52.335,43.864 C53.291,44.325 54.198,44.692 55.018,45.199 C55.278,45.360 55.457,45.924 55.395,46.249 C55.339,46.543 54.939,46.864 54.620,46.981 C54.385,47.068 54.026,46.870 53.742,46.751 C53.292,46.563 52.859,46.336 52.300,46.068 C52.300,47.739 52.293,49.239 52.313,50.739 C52.314,50.874 52.460,51.054 52.589,51.132 ZM52.319,58.430 C53.691,58.095 54.595,56.833 54.512,55.462 C54.445,54.372 53.496,53.445 52.319,53.336 C52.319,55.020 52.319,56.701 52.319,58.430 ZM50.209,46.349 C49.294,46.566 48.660,47.391 48.647,48.345 C48.636,49.192 49.138,49.755 50.209,50.075 C50.209,48.829 50.209,47.593 50.209,46.349 ZM19.492,49.894 C21.226,49.853 22.964,49.853 24.698,49.896 C25.662,49.920 26.274,50.542 26.299,51.520 C26.342,53.231 26.343,54.945 26.300,56.655 C26.274,57.686 25.616,58.295 24.582,58.310 C22.914,58.335 21.246,58.336 19.579,58.310 C18.528,58.292 17.893,57.626 17.871,56.573 C17.853,55.751 17.867,54.929 17.868,54.107 C17.869,53.262 17.852,52.416 17.873,51.573 C17.898,50.589 18.504,49.918 19.492,49.894 ZM19.978,56.265 C21.309,56.265 22.586,56.265 23.862,56.262 C23.972,56.262 24.082,56.232 24.217,56.211 C24.217,54.792 24.217,53.392 24.217,51.977 C22.769,51.977 21.371,51.977 19.978,51.977 C19.978,53.433 19.978,54.832 19.978,56.265 ZM24.485,45.810 C22.886,45.821 21.286,45.822 19.687,45.810 C18.538,45.801 17.884,45.130 17.868,43.962 C17.857,43.185 17.866,42.409 17.867,41.632 C17.867,40.787 17.853,39.942 17.871,39.097 C17.893,38.083 18.505,37.388 19.520,37.361 C21.232,37.314 22.947,37.315 24.660,37.361 C25.642,37.387 26.280,38.045 26.303,39.034 C26.344,40.723 26.346,42.415 26.305,44.103 C26.279,45.186 25.583,45.803 24.485,45.810 ZM24.212,39.432 C22.772,39.432 21.388,39.432 19.975,39.432 C19.975,40.886 19.975,42.303 19.975,43.731 C21.413,43.731 22.799,43.731 24.212,43.731 C24.212,42.282 24.212,40.860 24.212,39.432 ZM19.600,24.846 C21.268,24.827 22.937,24.825 24.604,24.847 C25.578,24.859 26.268,25.484 26.295,26.463 C26.342,28.197 26.341,29.934 26.297,31.669 C26.273,32.618 25.628,33.265 24.678,33.291 C22.965,33.338 21.250,33.339 19.537,33.295 C18.498,33.268 17.888,32.565 17.869,31.504 C17.855,30.682 17.867,29.860 17.867,29.038 C17.868,28.216 17.852,27.393 17.871,26.572 C17.895,25.535 18.564,24.858 19.600,24.846 ZM19.967,31.206 C21.408,31.206 22.805,31.206 24.224,31.206 C24.224,29.750 24.224,28.345 24.224,26.940 C22.777,26.940 21.373,26.940 19.967,26.940 C19.967,28.387 19.967,29.789 19.967,31.206 ZM6.036,26.554 C6.062,25.472 6.754,24.850 7.853,24.843 C9.452,24.831 11.051,24.831 12.651,24.843 C13.808,24.852 14.458,25.515 14.474,26.685 C14.486,27.485 14.476,28.284 14.476,29.083 C14.476,29.882 14.487,30.682 14.474,31.482 C14.456,32.578 13.835,33.275 12.759,33.300 C11.092,33.338 9.423,33.336 7.756,33.300 C6.708,33.278 6.054,32.613 6.033,31.555 C6.000,29.889 5.998,28.220 6.036,26.554 ZM8.130,31.222 C9.569,31.222 10.953,31.222 12.368,31.222 C12.368,29.768 12.368,28.351 12.368,26.922 C10.930,26.922 9.544,26.922 8.130,26.922 C8.130,28.370 8.130,29.792 8.130,31.222 ZM12.770,45.806 C11.102,45.827 9.434,45.825 7.766,45.808 C6.757,45.797 6.067,45.164 6.042,44.149 C5.999,42.438 6.001,40.723 6.041,39.012 C6.065,38.032 6.717,37.382 7.705,37.358 C9.394,37.315 11.086,37.315 12.776,37.356 C13.827,37.380 14.451,38.069 14.472,39.120 C14.489,39.965 14.475,40.810 14.475,41.655 C14.475,41.655 14.474,41.655 14.473,41.655 C14.473,42.477 14.492,43.299 14.468,44.121 C14.439,45.117 13.769,45.792 12.770,45.806 ZM12.366,39.429 C10.930,39.429 9.548,39.429 8.130,39.429 C8.130,40.883 8.130,42.301 8.130,43.705 C9.587,43.705 10.990,43.705 12.366,43.705 C12.366,42.250 12.366,40.848 12.366,39.429 ZM12.673,58.317 C11.851,58.335 11.028,58.320 10.206,58.320 C9.406,58.319 8.607,58.335 7.808,58.315 C6.728,58.287 6.065,57.694 6.040,56.634 C5.998,54.946 6.000,53.255 6.039,51.566 C6.063,50.526 6.689,49.909 7.734,49.885 C9.400,49.848 11.069,49.848 12.735,49.881 C13.839,49.903 14.461,50.565 14.472,51.663 C14.488,53.284 14.488,54.905 14.472,56.526 C14.461,57.649 13.810,58.291 12.673,58.317 ZM12.387,51.963 C10.926,51.963 9.541,51.963 8.123,51.963 C8.123,53.404 8.123,54.806 8.123,56.214 C9.571,56.214 10.971,56.214 12.387,56.214 C12.387,54.781 12.387,53.398 12.387,51.963 ZM43.272,24.845 C44.917,24.827 46.562,24.828 48.208,24.844 C49.284,24.855 49.957,25.533 49.979,26.604 C49.995,27.427 49.982,28.249 49.982,29.071 C49.982,29.871 49.991,30.670 49.980,31.470 C49.965,32.563 49.345,33.273 48.273,33.298 C46.582,33.338 44.890,33.337 43.200,33.295 C42.221,33.270 41.558,32.616 41.532,31.636 C41.487,29.924 41.485,28.209 41.533,26.498 C41.562,25.486 42.266,24.856 43.272,24.845 ZM43.601,31.210 C45.078,31.210 46.477,31.210 47.890,31.210 C47.890,29.761 47.890,28.361 47.890,26.953 C46.439,26.953 45.024,26.953 43.601,26.953 C43.601,28.392 43.601,29.773 43.601,31.210 ZM31.477,24.843 C32.298,24.828 33.119,24.840 33.940,24.840 C34.738,24.840 35.537,24.830 36.335,24.843 C37.445,24.859 38.140,25.516 38.157,26.625 C38.183,28.266 38.184,29.908 38.155,31.549 C38.137,32.586 37.471,33.275 36.434,33.300 C34.770,33.337 33.104,33.335 31.440,33.302 C30.364,33.280 29.702,32.584 29.690,31.513 C29.671,29.873 29.669,28.230 29.691,26.590 C29.706,25.530 30.407,24.862 31.477,24.843 ZM31.762,31.216 C33.231,31.216 34.632,31.216 36.070,31.216 C36.070,29.774 36.070,28.373 36.070,26.942 C34.621,26.942 33.202,26.942 31.762,26.942 C31.762,28.376 31.762,29.762 31.762,31.216 ZM5.667,17.598 C5.666,16.844 5.654,16.090 5.674,15.337 C5.690,14.685 6.095,14.277 6.680,14.274 C7.262,14.271 7.690,14.672 7.713,15.321 C7.742,16.138 7.720,16.956 7.720,17.813 C21.255,17.813 34.729,17.813 48.254,17.813 C48.254,14.541 48.254,11.267 48.254,7.947 C34.767,7.947 21.294,7.947 7.724,7.947 C7.724,8.755 7.732,9.506 7.721,10.259 C7.710,11.036 7.286,11.525 6.660,11.507 C6.052,11.489 5.675,11.030 5.669,10.275 C5.662,9.429 5.654,8.584 5.673,7.739 C5.697,6.684 6.346,5.990 7.393,5.875 C7.642,5.847 7.894,5.846 8.145,5.846 C21.377,5.845 34.609,5.845 47.841,5.845 C49.767,5.845 50.363,6.451 50.363,8.399 C50.363,11.460 50.365,14.521 50.362,17.583 C50.361,19.232 49.684,19.909 48.032,19.909 C34.686,19.910 21.340,19.910 7.994,19.909 C6.326,19.909 5.670,19.255 5.667,17.598 ZM54.961,32.256 C54.441,32.292 54.066,32.052 53.929,31.545 C53.854,31.266 53.853,30.959 53.853,30.665 C53.849,22.624 53.796,14.581 53.879,6.541 C53.907,3.743 51.923,2.042 49.358,2.052 C35.075,2.117 20.791,2.083 6.507,2.084 C3.738,2.084 2.139,3.691 2.138,6.478 C2.137,24.594 2.137,42.711 2.138,60.826 C2.138,63.021 3.213,64.576 5.106,65.054 C5.585,65.174 6.101,65.182 6.600,65.183 C16.313,65.189 26.026,65.188 35.739,65.189 C36.035,65.189 36.338,65.179 36.626,65.234 C37.199,65.344 37.515,65.727 37.470,66.303 C37.429,66.839 37.098,67.174 36.540,67.229 C36.337,67.249 36.130,67.244 35.924,67.244 C26.120,67.244 16.315,67.192 6.511,67.271 C2.913,67.300 0.037,64.636 0.062,60.816 C0.121,51.748 0.081,42.677 0.081,33.608 C0.081,24.515 0.078,15.423 0.083,6.331 C0.085,3.323 1.801,0.975 4.542,0.251 C5.108,0.101 5.713,0.037 6.301,0.037 C20.767,0.025 35.234,0.024 49.700,0.030 C53.314,0.031 55.891,2.573 55.899,6.187 C55.919,14.435 55.906,22.682 55.905,30.929 C55.905,31.088 55.910,31.251 55.883,31.407 C55.794,31.921 55.484,32.221 54.961,32.256 Z"/>
</svg>