<svg 
 xmlns="http://www.w3.org/2000/svg"
 xmlns:xlink="http://www.w3.org/1999/xlink"
 width="72px" height="70px">
<path fill-rule="evenodd"  fill="rgb(255, 255, 255)"
 d="M71.715,56.041 C71.715,57.016 71.464,57.281 70.511,57.282 C65.991,57.286 61.471,57.286 56.951,57.282 C55.954,57.281 55.717,57.030 55.716,56.003 C55.713,53.755 55.715,51.507 55.715,49.260 C55.715,47.013 55.713,44.765 55.716,42.517 C55.717,41.538 55.960,41.290 56.918,41.290 C61.438,41.287 65.958,41.287 70.478,41.289 C71.480,41.290 71.715,41.530 71.716,42.556 C71.718,47.050 71.718,51.545 71.715,56.041 ZM70.044,42.947 C65.814,42.947 61.618,42.947 57.401,42.947 C57.401,47.189 57.401,51.384 57.401,55.587 C61.644,55.587 65.838,55.587 70.044,55.587 C70.044,51.353 70.044,47.174 70.044,42.947 ZM61.607,44.092 C62.293,44.096 62.979,44.092 63.665,44.092 C64.920,44.092 65.856,44.651 66.406,45.768 C66.958,46.888 66.801,47.967 66.054,48.964 C65.984,49.058 65.910,49.150 65.806,49.283 C67.637,51.299 66.477,54.004 64.370,54.383 C63.407,54.555 62.388,54.510 61.405,54.432 C61.150,54.412 60.736,53.902 60.731,53.613 C60.681,50.729 60.693,47.843 60.707,44.959 C60.710,44.406 61.020,44.087 61.607,44.092 ZM62.398,45.723 C62.398,46.641 62.398,47.517 62.398,48.388 C64.342,48.556 65.068,48.200 65.086,47.108 C65.104,45.996 64.314,45.578 62.398,45.723 ZM62.381,52.874 C63.294,52.834 64.238,53.142 64.867,52.231 C65.204,51.741 65.197,51.190 64.856,50.706 C64.215,49.800 63.269,50.152 62.381,50.098 C62.381,51.051 62.381,51.929 62.381,52.874 ZM62.901,33.779 C62.553,33.781 62.206,33.779 61.821,33.779 C61.821,34.815 61.821,35.769 61.821,36.793 C62.406,36.484 63.005,36.162 63.372,36.922 C63.741,37.687 63.077,37.962 62.586,38.267 C60.625,39.483 61.301,39.474 59.339,38.263 C59.319,38.251 59.301,38.235 59.281,38.223 C58.777,37.927 58.218,37.610 58.565,36.910 C58.912,36.210 59.489,36.444 60.087,36.787 C60.087,35.760 60.087,34.816 60.087,33.779 C59.844,33.779 59.615,33.779 59.386,33.779 C57.186,33.779 54.986,33.763 52.787,33.795 C52.417,33.800 51.997,33.938 51.689,34.146 C50.338,35.058 49.033,36.040 47.677,36.945 C47.387,37.137 46.865,37.282 46.611,37.146 C46.355,37.010 46.176,36.499 46.174,36.150 C46.148,30.711 46.154,25.273 46.157,19.834 C46.158,18.940 46.394,18.712 47.301,18.712 C52.528,18.709 57.755,18.709 62.983,18.711 C63.940,18.712 64.181,18.957 64.182,19.942 C64.185,24.127 64.184,28.312 64.182,32.498 C64.182,33.576 63.979,33.775 62.901,33.779 ZM62.483,20.378 C57.545,20.378 52.667,20.378 47.771,20.378 C47.771,25.213 47.771,29.986 47.771,34.914 C48.941,34.090 49.980,33.316 51.066,32.616 C51.437,32.377 51.924,32.204 52.360,32.200 C55.482,32.165 58.603,32.181 61.725,32.181 C61.977,32.181 62.229,32.181 62.483,32.181 C62.483,28.183 62.483,24.277 62.483,20.378 ZM60.368,26.773 C60.109,26.791 59.848,26.776 59.588,26.776 C59.588,26.772 59.588,26.768 59.588,26.764 C59.281,26.764 58.912,26.870 58.683,26.737 C58.386,26.565 58.042,26.213 58.020,25.915 C58.002,25.687 58.417,25.267 58.698,25.207 C59.241,25.090 59.825,25.148 60.391,25.171 C60.886,25.191 61.205,25.482 61.196,25.979 C61.187,26.473 60.858,26.739 60.368,26.773 ZM55.931,26.774 C55.673,26.789 55.412,26.776 55.153,26.776 C54.893,26.775 54.632,26.794 54.375,26.772 C53.893,26.732 53.566,26.498 53.556,25.979 C53.545,25.458 53.861,25.195 54.348,25.171 C54.889,25.142 55.434,25.146 55.975,25.171 C56.474,25.195 56.782,25.494 56.767,25.989 C56.753,26.481 56.424,26.746 55.931,26.774 ZM51.556,26.769 C51.277,26.799 50.992,26.775 50.709,26.775 C50.709,26.773 50.709,26.771 50.709,26.769 C50.426,26.769 50.139,26.801 49.862,26.762 C49.414,26.701 49.131,26.440 49.134,25.959 C49.136,25.478 49.416,25.206 49.874,25.178 C50.437,25.144 51.005,25.146 51.568,25.174 C52.027,25.197 52.322,25.461 52.333,25.937 C52.345,26.445 52.042,26.717 51.556,26.769 ZM62.004,16.007 C57.438,16.009 52.872,16.009 48.306,16.007 C47.411,16.007 47.174,15.767 47.172,14.871 C47.169,12.577 47.171,10.283 47.171,7.988 C47.171,5.717 47.169,3.448 47.172,1.176 C47.174,0.278 47.403,0.033 48.305,0.031 C52.871,0.025 57.437,0.025 62.003,0.031 C62.911,0.033 63.140,0.265 63.141,1.176 C63.146,5.740 63.146,10.305 63.141,14.870 C63.140,15.773 62.898,16.007 62.004,16.007 ZM61.468,1.684 C57.232,1.684 53.052,1.684 48.825,1.684 C48.825,5.957 48.825,10.148 48.825,14.367 C53.071,14.367 57.265,14.367 61.468,14.367 C61.468,10.111 61.468,5.900 61.468,1.684 ZM52.520,8.688 C53.106,6.994 53.700,5.304 54.283,3.609 C54.429,3.187 54.599,2.810 55.133,2.806 C55.649,2.803 55.850,3.117 56.004,3.567 C56.928,6.266 57.877,8.956 58.815,11.651 C58.900,11.895 58.966,12.146 59.091,12.557 C58.902,12.739 58.706,13.055 58.429,13.165 C58.001,13.335 57.634,13.105 57.471,12.672 C57.189,11.923 56.916,11.168 56.682,10.402 C56.558,9.994 56.347,9.871 55.926,9.867 C53.835,9.851 53.836,9.838 53.146,11.836 C53.053,12.104 52.964,12.374 52.861,12.637 C52.664,13.139 52.283,13.336 51.786,13.149 C51.311,12.970 51.193,12.561 51.348,12.097 C51.730,10.957 52.126,9.823 52.520,8.688 ZM55.886,8.171 C55.647,7.488 55.435,6.883 55.157,6.090 C54.878,6.891 54.659,7.517 54.432,8.171 C54.935,8.171 55.377,8.171 55.886,8.171 ZM48.600,40.472 C49.300,42.582 49.495,44.672 48.375,46.721 C48.266,46.921 48.225,47.170 48.202,47.401 C47.987,49.537 47.058,51.335 45.580,52.851 C45.183,53.258 44.986,53.644 45.031,54.210 C45.077,54.794 45.041,55.385 45.041,56.078 C46.220,56.078 47.305,56.077 48.390,56.078 C51.540,56.080 53.394,57.428 54.099,60.492 C54.500,62.233 54.611,64.041 54.829,65.822 C54.950,66.806 55.034,67.797 55.112,68.787 C55.183,69.682 54.925,69.970 54.055,69.970 C45.135,69.973 36.216,69.972 27.297,69.971 C26.502,69.970 26.143,69.677 26.208,69.015 C26.458,66.499 26.702,63.981 27.026,61.475 C27.124,60.716 27.409,59.962 27.725,59.256 C28.669,57.148 30.324,56.081 32.647,56.078 C33.826,56.076 35.005,56.078 36.280,56.078 C36.280,55.277 36.303,54.529 36.264,53.785 C36.255,53.614 36.058,53.429 35.910,53.290 C34.171,51.662 33.097,49.697 32.832,47.309 C32.804,47.056 32.708,46.808 32.623,46.564 C31.046,42.038 33.814,36.652 38.379,35.443 C41.015,34.744 43.196,35.544 45.020,37.546 C45.474,38.045 46.113,38.457 46.748,38.683 C47.679,39.013 48.294,39.552 48.600,40.472 ZM36.174,57.729 C35.041,57.680 33.904,57.702 32.768,57.712 C30.810,57.729 29.647,58.486 29.017,60.337 C28.686,61.310 28.517,62.352 28.386,63.376 C28.176,65.008 28.059,66.654 27.901,68.322 C29.446,68.322 30.921,68.322 32.446,68.322 C32.446,67.372 32.439,66.476 32.449,65.579 C32.456,64.863 32.759,64.444 33.270,64.483 C33.943,64.536 34.092,65.010 34.087,65.591 C34.079,66.487 34.085,67.382 34.085,68.323 C38.535,68.323 42.873,68.323 47.278,68.323 C47.278,67.378 47.289,66.483 47.274,65.590 C47.264,65.008 47.387,64.528 48.071,64.481 C48.589,64.445 48.875,64.854 48.879,65.580 C48.884,66.492 48.880,67.405 48.880,68.318 C50.448,68.318 51.920,68.318 53.413,68.318 C53.413,68.167 53.421,68.073 53.412,67.980 C53.245,66.263 53.130,64.538 52.888,62.831 C52.741,61.789 52.500,60.736 52.119,59.757 C51.602,58.430 50.530,57.739 49.077,57.725 C47.728,57.711 46.380,57.698 45.032,57.723 C44.782,57.729 44.473,57.851 44.297,58.024 C43.507,58.805 42.739,59.611 42.004,60.443 C41.871,60.594 41.826,60.966 41.918,61.144 C42.372,62.025 42.890,62.873 43.377,63.738 C43.734,64.372 43.676,64.867 43.197,65.079 C42.630,65.329 42.261,65.062 41.985,64.559 C41.580,63.822 41.148,63.101 40.670,62.274 C40.206,63.076 39.781,63.778 39.389,64.498 C39.107,65.017 38.747,65.344 38.138,65.081 C37.659,64.874 37.616,64.336 37.995,63.671 C38.542,62.709 39.097,61.751 39.668,60.755 C38.821,59.864 38.012,58.971 37.148,58.135 C36.909,57.904 36.508,57.743 36.174,57.729 ZM43.401,56.020 C43.401,55.569 43.401,55.174 43.401,54.623 C41.581,55.745 39.808,55.876 37.978,54.844 C37.978,55.308 37.978,55.668 37.978,56.020 C39.810,56.020 41.591,56.020 43.401,56.020 ZM39.048,57.756 C39.647,58.384 40.153,58.915 40.681,59.467 C41.221,58.890 41.708,58.368 42.280,57.756 C41.160,57.756 40.178,57.756 39.048,57.756 ZM34.541,47.810 C35.160,50.574 36.872,52.455 39.339,53.695 C40.165,54.111 41.057,54.026 41.876,53.610 C44.390,52.336 46.870,49.709 46.621,45.938 C46.541,44.729 46.024,43.749 44.911,43.281 C43.994,42.896 42.981,42.739 42.010,42.482 C41.994,42.521 41.977,42.559 41.960,42.599 C41.305,42.684 40.638,42.719 39.996,42.862 C38.114,43.284 36.399,44.028 35.134,45.569 C34.596,46.224 34.349,46.951 34.541,47.810 ZM46.263,40.287 C45.206,39.952 44.385,39.349 43.677,38.510 C42.654,37.296 41.324,36.718 39.723,36.843 C36.317,37.114 33.452,40.793 33.867,44.580 C34.098,44.306 34.224,44.143 34.365,43.990 C36.954,41.200 44.081,39.331 47.505,43.193 C47.415,42.464 47.309,41.731 47.058,41.049 C46.941,40.733 46.584,40.389 46.263,40.287 ZM36.531,45.524 C36.858,45.496 37.190,45.519 37.521,45.519 C37.521,45.520 37.521,45.522 37.521,45.524 C37.803,45.524 38.140,45.427 38.356,45.547 C38.642,45.707 39.014,46.035 39.016,46.294 C39.018,46.557 38.651,47.004 38.386,47.053 C37.771,47.167 37.106,47.167 36.490,47.057 C36.224,47.010 35.897,46.604 35.831,46.310 C35.731,45.863 36.061,45.563 36.531,45.524 ZM39.080,49.560 C40.037,49.467 41.009,49.502 41.973,49.533 C42.458,49.548 42.770,49.851 42.756,50.355 C42.744,50.821 42.452,51.092 41.989,51.117 C41.496,51.141 41.000,51.122 40.506,51.122 C40.506,51.123 40.506,51.124 40.506,51.125 C40.035,51.125 39.563,51.141 39.093,51.119 C38.589,51.096 38.233,50.778 38.340,50.310 C38.408,50.008 38.800,49.588 39.080,49.560 ZM42.023,46.315 C42.018,45.851 42.268,45.545 42.747,45.525 C43.336,45.500 43.926,45.505 44.515,45.522 C44.998,45.536 45.325,45.869 45.243,46.286 C45.184,46.590 44.828,46.909 44.524,47.071 C44.286,47.198 43.925,47.097 43.619,47.098 C43.336,47.098 43.051,47.117 42.770,47.094 C42.302,47.057 42.029,46.783 42.023,46.315 ZM42.555,9.929 C42.257,10.417 41.864,10.690 41.325,10.373 C40.818,10.074 40.830,9.617 41.131,9.148 C41.178,9.074 41.196,8.983 41.249,8.846 C40.244,8.846 39.293,8.846 38.255,8.846 C38.255,10.227 38.255,11.567 38.255,12.908 C38.255,13.429 38.261,13.949 38.254,14.470 C38.242,15.305 37.996,15.553 37.137,15.554 C33.777,15.559 30.418,15.568 27.058,15.544 C26.480,15.540 26.021,15.691 25.561,16.030 C24.324,16.941 23.073,17.836 21.793,18.685 C21.497,18.882 20.982,19.040 20.716,18.910 C20.455,18.783 20.250,18.268 20.248,17.923 C20.220,12.483 20.226,7.042 20.230,1.603 C20.231,0.723 20.485,0.476 21.386,0.474 C26.638,0.470 31.891,0.469 37.143,0.474 C38.050,0.476 38.251,0.695 38.254,1.628 C38.258,3.446 38.255,5.265 38.255,7.169 C39.285,7.169 40.225,7.169 41.253,7.169 C41.158,6.963 40.991,6.775 41.014,6.614 C41.063,6.277 41.121,5.806 41.347,5.669 C41.570,5.531 42.140,5.616 42.317,5.817 C42.796,6.360 43.188,6.996 43.529,7.641 C43.644,7.858 43.587,8.253 43.465,8.495 C43.212,8.998 42.850,9.445 42.555,9.929 ZM36.613,2.120 C31.704,2.120 26.839,2.120 21.918,2.120 C21.918,6.964 21.918,11.745 21.918,16.634 C23.041,15.842 24.056,15.075 25.127,14.396 C25.538,14.136 26.075,13.952 26.557,13.946 C29.632,13.906 32.708,13.926 35.784,13.926 C36.057,13.926 36.329,13.926 36.613,13.926 C36.613,9.927 36.613,6.037 36.613,2.120 ZM34.549,8.501 C34.269,8.526 33.985,8.506 33.702,8.506 C33.702,8.505 33.702,8.504 33.702,8.503 C33.396,8.503 33.088,8.525 32.784,8.498 C32.306,8.456 31.1000,8.131 32.101,7.698 C32.169,7.405 32.501,7.017 32.775,6.962 C33.340,6.846 33.947,6.900 34.534,6.930 C34.998,6.953 35.271,7.240 35.276,7.710 C35.281,8.181 35.021,8.461 34.549,8.501 ZM30.164,8.473 C29.922,8.598 29.565,8.499 29.258,8.500 C28.952,8.501 28.596,8.598 28.351,8.475 C28.062,8.330 27.688,7.999 27.681,7.741 C27.675,7.477 28.035,7.019 28.295,6.970 C28.910,6.855 29.576,6.855 30.192,6.968 C30.452,7.015 30.812,7.463 30.810,7.727 C30.809,7.985 30.449,8.327 30.164,8.473 ZM25.728,8.468 C25.160,8.582 24.536,8.590 23.972,8.470 C23.675,8.408 23.257,7.983 23.257,7.722 C23.256,7.456 23.661,7.111 23.967,6.949 C24.207,6.822 24.567,6.924 24.874,6.924 C25.157,6.924 25.502,6.823 25.709,6.949 C26.006,7.128 26.361,7.458 26.391,7.752 C26.413,7.978 26.003,8.413 25.728,8.468 ZM22.739,22.337 C23.398,24.435 23.563,26.503 22.453,28.526 C22.314,28.778 22.327,29.116 22.282,29.415 C21.982,31.396 21.134,33.116 19.736,34.536 C19.277,35.001 19.077,35.459 19.129,36.096 C19.175,36.652 19.139,37.215 19.139,37.853 C20.195,37.853 21.160,37.853 22.124,37.853 C25.854,37.853 27.673,39.201 28.339,42.864 C28.815,45.485 28.959,48.167 29.224,50.825 C29.282,51.413 28.905,51.737 28.221,51.742 C26.115,51.760 24.009,51.760 21.903,51.760 C17.147,51.762 12.390,51.762 7.634,51.760 C5.528,51.760 3.422,51.760 1.316,51.742 C0.581,51.736 0.253,51.443 0.321,50.765 C0.579,48.154 0.788,45.534 1.204,42.947 C1.374,41.891 1.908,40.839 2.486,39.915 C3.341,38.547 4.709,37.899 6.329,37.867 C7.650,37.840 8.972,37.860 10.395,37.860 C10.395,37.050 10.421,36.342 10.379,35.639 C10.368,35.442 10.193,35.221 10.036,35.073 C8.319,33.463 7.296,31.529 6.926,29.177 C6.711,27.811 6.200,26.502 6.267,25.073 C6.441,21.371 9.342,17.810 12.928,17.094 C15.354,16.611 17.374,17.413 19.056,19.227 C19.530,19.738 20.171,20.185 20.823,20.422 C21.805,20.779 22.433,21.365 22.739,22.337 ZM10.372,39.466 C9.286,39.427 8.197,39.450 7.109,39.450 C4.819,39.451 3.477,40.278 2.979,42.528 C2.436,44.978 2.243,47.505 1.889,50.062 C3.540,50.062 5.014,50.062 6.557,50.062 C6.557,49.107 6.565,48.191 6.554,47.274 C6.547,46.708 6.712,46.257 7.352,46.250 C8.000,46.243 8.162,46.700 8.157,47.264 C8.149,48.180 8.155,49.097 8.155,50.055 C12.618,50.055 16.957,50.055 21.350,50.055 C21.350,49.160 21.348,48.312 21.351,47.465 C21.354,46.606 21.609,46.233 22.182,46.241 C22.745,46.248 22.981,46.613 22.984,47.494 C22.987,48.338 22.985,49.181 22.985,50.057 C24.541,50.057 26.015,50.057 27.539,50.057 C27.341,48.033 27.184,46.055 26.936,44.089 C26.834,43.279 26.602,42.469 26.312,41.703 C25.738,40.188 24.578,39.457 22.963,39.451 C21.710,39.446 20.456,39.443 19.203,39.457 C18.981,39.460 18.687,39.482 18.550,39.619 C17.605,40.567 16.692,41.549 15.769,42.519 C16.361,43.548 16.911,44.510 17.468,45.469 C17.755,45.965 17.904,46.469 17.304,46.818 C16.697,47.171 16.345,46.775 16.062,46.278 C15.649,45.552 15.227,44.829 14.765,44.029 C14.272,44.879 13.845,45.612 13.421,46.349 C13.142,46.835 12.770,47.151 12.212,46.815 C11.666,46.485 11.745,46.012 12.032,45.524 C12.534,44.669 13.009,43.797 13.523,42.949 C13.716,42.630 13.696,42.415 13.433,42.148 C12.667,41.376 11.941,40.563 11.164,39.804 C10.970,39.614 10.643,39.475 10.372,39.466 ZM17.475,37.798 C17.475,37.328 17.475,36.915 17.475,36.395 C15.681,37.493 13.894,37.647 12.068,36.591 C12.068,37.063 12.068,37.442 12.068,37.798 C13.914,37.798 15.693,37.798 17.475,37.798 ZM13.125,39.498 C13.710,40.111 14.207,40.631 14.775,41.223 C15.332,40.633 15.830,40.104 16.402,39.498 C15.239,39.498 14.249,39.498 13.125,39.498 ZM8.669,29.742 C9.332,32.380 10.994,34.171 13.326,35.408 C14.116,35.826 14.993,35.836 15.793,35.435 C18.512,34.075 20.348,32.011 20.703,28.888 C20.975,26.487 19.996,25.058 17.824,24.576 C17.274,24.453 16.704,24.420 16.047,24.332 C15.336,24.440 14.530,24.503 13.757,24.695 C12.058,25.117 10.503,25.832 9.332,27.198 C8.700,27.936 8.415,28.731 8.669,29.742 ZM17.686,20.169 C16.544,18.883 15.071,18.331 13.341,18.656 C10.672,19.157 8.369,21.673 7.982,24.510 C7.908,25.054 7.905,25.606 7.869,26.155 C9.410,24.630 11.149,23.649 13.144,23.181 C16.210,22.463 19.165,22.421 21.517,25.021 C21.585,25.007 21.653,24.994 21.721,24.981 C21.508,24.168 21.326,23.346 21.060,22.551 C20.988,22.335 20.684,22.111 20.446,22.049 C19.290,21.753 18.464,21.044 17.686,20.169 ZM10.666,27.284 C11.203,27.160 11.809,27.161 12.348,27.281 C12.652,27.348 13.028,27.717 13.109,28.020 C13.235,28.497 12.864,28.802 12.377,28.856 C12.074,28.890 11.765,28.862 11.459,28.862 C11.459,28.871 11.458,28.881 11.458,28.890 C11.176,28.877 10.835,28.960 10.625,28.830 C10.327,28.646 9.927,28.298 9.937,28.035 C9.948,27.764 10.363,27.354 10.666,27.284 ZM13.233,31.299 C13.727,31.287 14.222,31.297 14.717,31.297 C14.717,31.298 14.717,31.299 14.717,31.299 C15.164,31.299 15.612,31.288 16.059,31.303 C16.569,31.320 16.853,31.616 16.846,32.110 C16.839,32.571 16.552,32.871 16.088,32.884 C15.123,32.910 14.157,32.910 13.192,32.884 C12.701,32.872 12.391,32.571 12.402,32.071 C12.414,31.569 12.736,31.311 13.233,31.299 ZM16.145,28.080 C16.179,27.782 16.543,27.360 16.837,27.289 C17.373,27.159 17.963,27.226 18.528,27.251 C19.008,27.273 19.339,27.519 19.353,28.039 C19.367,28.562 19.043,28.809 18.564,28.860 C18.284,28.892 17.998,28.867 17.715,28.867 C17.715,28.876 17.715,28.885 17.714,28.893 C17.408,28.877 17.052,28.954 16.809,28.823 C16.520,28.666 16.120,28.308 16.145,28.080 Z"/>
</svg>