<svg 
 xmlns="http://www.w3.org/2000/svg"
 xmlns:xlink="http://www.w3.org/1999/xlink"
 width="72px" height="55px">
<path fill-rule="evenodd"  fill="rgb(255, 255, 255)"
 d="M67.259,36.270 C66.575,36.272 65.891,36.271 65.141,36.271 C65.141,36.761 65.141,37.172 65.141,37.582 C65.141,40.193 65.132,42.803 65.146,45.414 C65.150,46.106 65.030,46.709 64.353,47.045 C63.669,47.384 63.126,47.081 62.586,46.663 C61.366,45.716 60.138,44.781 58.890,43.873 C58.652,43.700 58.312,43.580 58.019,43.580 C46.535,43.565 35.051,43.564 23.566,43.584 C23.237,43.584 22.857,43.757 22.585,43.963 C18.224,47.247 13.877,50.551 9.526,53.849 C9.398,53.946 9.266,54.040 9.138,54.138 C8.649,54.507 8.122,54.564 7.584,54.285 C7.063,54.013 6.858,53.542 6.858,52.966 C6.860,50.146 6.858,47.328 6.858,44.509 C6.858,44.233 6.858,43.957 6.858,43.568 C6.360,43.568 5.886,43.536 5.418,43.573 C3.067,43.753 1.406,42.857 0.640,40.534 C0.640,30.642 0.640,20.751 0.640,10.859 C0.863,10.385 1.029,9.872 1.320,9.443 C2.039,8.382 3.073,7.832 4.356,7.811 C5.523,7.793 6.691,7.807 7.938,7.807 C7.938,6.701 7.935,5.668 7.938,4.635 C7.945,2.060 9.451,0.539 12.011,0.539 C30.423,0.537 48.834,0.537 67.246,0.539 C69.840,0.539 71.358,2.070 71.359,4.676 C71.360,13.825 71.360,22.975 71.359,32.125 C71.358,34.738 69.847,36.264 67.259,36.270 ZM67.142,3.311 C48.820,3.311 30.497,3.311 12.175,3.311 C10.931,3.311 10.700,3.551 10.700,4.824 C10.700,13.837 10.700,22.849 10.700,31.861 C10.700,33.315 10.880,33.496 12.324,33.497 C15.086,33.497 17.848,33.496 20.611,33.498 C20.841,33.498 21.073,33.490 21.300,33.519 C22.100,33.623 22.631,34.224 22.593,34.964 C22.554,35.719 21.998,36.258 21.168,36.263 C18.153,36.277 15.134,36.190 12.123,36.295 C9.605,36.382 7.881,34.497 7.909,32.079 C7.990,25.217 7.938,18.353 7.938,11.490 C7.938,11.217 7.938,10.944 7.938,10.578 C6.778,10.578 5.721,10.571 4.664,10.580 C3.759,10.586 3.404,10.934 3.404,11.832 C3.401,21.076 3.401,30.320 3.404,39.563 C3.405,40.423 3.764,40.782 4.624,40.791 C5.728,40.802 6.833,40.790 7.938,40.795 C9.137,40.802 9.617,41.279 9.619,42.473 C9.624,44.830 9.621,47.187 9.621,49.545 C9.621,49.755 9.621,49.966 9.621,50.291 C9.940,50.054 10.125,49.918 10.308,49.778 C13.980,46.994 17.659,44.219 21.316,41.414 C21.899,40.967 22.489,40.782 23.218,40.783 C33.461,40.800 43.704,40.795 53.947,40.795 C54.174,40.795 54.400,40.795 54.626,40.795 C52.935,39.340 51.220,38.060 49.533,36.743 C49.088,36.397 48.645,36.257 48.084,36.260 C43.342,36.278 38.600,36.272 33.859,36.268 C32.861,36.267 32.282,35.775 32.258,34.943 C32.233,34.087 32.836,33.535 33.835,33.498 C33.950,33.494 34.066,33.497 34.181,33.497 C39.061,33.497 43.940,33.505 48.820,33.488 C49.499,33.486 50.058,33.669 50.601,34.083 C54.299,36.910 58.013,39.715 61.723,42.526 C61.909,42.667 62.103,42.796 62.378,42.991 C62.378,40.307 62.376,37.765 62.379,35.225 C62.381,34.007 62.877,33.510 64.103,33.499 C65.116,33.490 66.129,33.498 67.142,33.496 C68.325,33.494 68.596,33.221 68.596,32.028 C68.597,22.945 68.597,13.864 68.597,4.783 C68.596,3.580 68.334,3.311 67.142,3.311 ZM61.373,27.394 C60.577,26.594 59.807,25.768 59.100,25.031 C57.998,25.514 57.055,26.091 56.033,26.345 C52.898,27.123 50.258,26.131 48.167,23.722 C44.944,20.008 45.030,14.162 48.307,10.506 C51.831,6.576 57.735,6.967 60.714,11.414 C63.070,14.931 63.127,18.623 61.147,22.353 C61.051,22.534 60.942,22.707 60.816,22.923 C61.683,23.794 62.500,24.606 63.306,25.428 C63.986,26.124 64.033,26.918 63.448,27.512 C62.871,28.099 62.044,28.067 61.373,27.394 ZM57.596,11.978 C55.488,10.046 52.530,10.126 50.531,12.175 C49.411,13.324 48.779,14.724 48.630,16.308 C48.375,19.021 49.156,21.348 51.441,22.976 C53.106,24.162 55.471,24.107 56.877,22.898 C56.121,22.152 55.362,21.417 54.618,20.666 C53.921,19.962 53.867,19.111 54.462,18.530 C55.043,17.960 55.864,18.006 56.543,18.688 C57.259,19.406 57.945,20.153 58.692,20.938 C60.492,18.376 59.916,14.105 57.596,11.978 ZM43.336,27.412 C42.577,27.718 41.865,27.366 41.481,26.468 C40.892,25.091 40.306,23.712 39.744,22.325 C39.602,21.974 39.421,21.836 39.033,21.840 C37.124,21.860 35.215,21.860 33.306,21.840 C32.917,21.836 32.732,21.977 32.592,22.323 C32.036,23.689 31.461,25.046 30.886,26.405 C30.486,27.348 29.775,27.724 29.001,27.414 C28.197,27.091 27.939,26.298 28.346,25.329 C30.492,20.207 32.644,15.089 34.791,9.967 C35.051,9.346 35.436,8.905 36.218,8.897 C36.884,8.909 37.276,9.327 37.539,9.957 C39.229,13.996 40.929,18.030 42.626,22.066 C43.090,23.171 43.559,24.273 44.013,25.383 C44.397,26.321 44.132,27.091 43.336,27.412 ZM36.170,13.840 C35.413,15.644 34.715,17.306 33.987,19.039 C35.487,19.039 36.877,19.039 38.351,19.039 C37.629,17.318 36.931,15.655 36.170,13.840 ZM19.479,16.140 C21.664,16.140 23.849,16.125 26.034,16.146 C27.240,16.159 27.926,17.280 27.345,18.238 C27.041,18.740 26.575,18.919 26.000,18.917 C23.838,18.907 21.676,18.913 19.514,18.913 C19.268,18.913 19.022,18.913 18.703,18.913 C18.703,19.423 18.703,19.855 18.703,20.289 C18.703,22.321 18.715,24.353 18.696,26.384 C18.687,27.332 18.101,27.936 17.282,27.921 C16.479,27.907 15.967,27.327 15.942,26.398 C15.937,26.213 15.940,26.028 15.940,25.844 C15.940,21.225 15.940,16.607 15.940,11.990 C15.940,11.458 15.931,10.926 15.944,10.396 C15.967,9.405 16.454,8.902 17.441,8.898 C20.293,8.887 23.145,8.889 25.997,8.897 C26.943,8.900 27.563,9.468 27.552,10.282 C27.541,11.088 26.913,11.656 25.968,11.661 C23.829,11.675 21.690,11.666 19.551,11.667 C19.301,11.667 19.052,11.667 18.728,11.667 C18.728,13.192 18.728,14.617 18.728,16.140 C18.992,16.140 19.236,16.140 19.479,16.140 ZM27.394,33.514 C28.148,33.499 28.808,34.152 28.803,34.906 C28.797,35.653 28.200,36.251 27.447,36.263 C26.656,36.276 26.046,35.676 26.050,34.889 C26.054,34.146 26.657,33.528 27.394,33.514 Z"/>
</svg>