<svg 
 xmlns="http://www.w3.org/2000/svg"
 xmlns:xlink="http://www.w3.org/1999/xlink"
 width="22px" height="23px">
<path fill-rule="evenodd"  fill="rgb(255, 255, 255)"
 d="M21.990,17.225 L21.990,21.685 C21.990,22.347 21.495,22.896 20.855,22.943 C20.322,22.981 19.887,23.002 19.550,23.002 C8.772,23.002 0.035,13.967 0.035,2.823 C0.035,2.474 0.054,2.024 0.091,1.473 C0.136,0.812 0.668,0.299 1.309,0.299 L5.621,0.299 C5.935,0.299 6.198,0.546 6.229,0.867 C6.257,1.158 6.283,1.388 6.307,1.563 C6.549,3.313 7.046,5.014 7.780,6.610 C7.896,6.862 7.821,7.163 7.601,7.325 L4.969,9.269 C6.578,13.147 9.567,16.237 13.317,17.901 L15.195,15.185 C15.353,14.955 15.647,14.876 15.894,14.996 C17.437,15.754 19.081,16.267 20.773,16.516 C20.942,16.541 21.165,16.569 21.443,16.597 C21.755,16.630 21.991,16.901 21.991,17.225 L21.990,17.225 Z"/>
</svg>