<svg 
 xmlns="http://www.w3.org/2000/svg"
 xmlns:xlink="http://www.w3.org/1999/xlink"
 width="27px" height="26px">
<path fill-rule="evenodd"  fill="rgb(255, 255, 255)"
 d="M23.075,25.999 L3.912,25.999 C1.748,25.999 -0.007,24.233 -0.007,22.054 L-0.007,5.291 C-0.007,3.113 1.825,3.014 3.989,3.014 L4.988,3.014 L6.986,3.014 C6.986,3.543 6.893,2.998 6.986,3.014 C6.896,2.873 6.986,3.399 6.986,3.014 L6.986,1.019 C6.986,0.113 7.510,-0.060 8.408,-0.015 C9.836,0.056 9.986,0.113 9.983,1.019 L9.983,3.014 C9.983,3.054 9.981,3.085 9.981,3.122 C9.986,3.123 9.990,3.124 9.995,3.125 C9.991,3.089 9.983,3.055 9.983,3.014 L11.981,3.014 L15.977,3.014 L17.975,3.014 C17.975,3.050 17.969,3.076 17.966,3.108 C17.972,3.105 17.976,3.104 17.982,3.102 C17.981,3.067 17.975,3.051 17.975,3.014 L17.975,1.019 C17.975,0.113 18.075,0.006 18.974,0.021 C21.055,0.053 20.972,0.113 20.972,1.019 L20.972,3.014 L23.004,3.014 C25.168,3.014 26.993,3.113 26.993,5.291 L26.993,22.054 C26.993,24.233 25.239,25.999 23.075,25.999 ZM25.071,21.182 L25.071,6.732 L1.922,6.732 L1.922,22.146 C1.922,23.154 2.988,24.003 3.989,24.003 L23.004,24.003 C24.005,24.003 25.002,23.015 25.002,22.008 L25.071,21.182 ZM17.355,16.365 L21.213,16.365 L21.213,20.219 L17.355,20.219 L17.355,16.365 ZM17.355,10.586 L21.213,10.586 L21.213,14.438 L17.355,14.438 L17.355,10.586 ZM11.568,16.365 L15.426,16.365 L15.426,20.219 L11.568,20.219 L11.568,16.365 ZM11.568,10.586 L15.426,10.586 L15.426,14.438 L11.568,14.438 L11.568,10.586 ZM5.780,16.365 L9.639,16.365 L9.639,20.219 L5.780,20.219 L5.780,16.365 ZM5.780,10.586 L9.639,10.586 L9.639,14.438 L5.780,14.438 L5.780,10.586 Z"/>
</svg>